<svg width="24" height="24" viewBox="0 0 24 24" fill="none" xmlns="http://www.w3.org/2000/svg">
<g clip-path="url(#clip0_1054_7483)">
<path fill-rule="evenodd" clip-rule="evenodd" d="M9.00071 4.24316C9.00071 3.6557 8.4976 3.18692 7.91493 3.26178C6.53458 3.43912 5.6116 3.7606 4.68619 4.68601C3.76125 5.61094 3.43963 6.53346 3.26223 7.91263C3.18729 8.49531 3.65609 8.99845 4.24357 8.99845C4.7636 8.99845 5.19129 8.60038 5.26037 8.08496C5.40801 6.98333 5.61324 6.58738 6.1004 6.10022C6.58786 5.61276 6.984 5.40757 8.08718 5.25991C8.60263 5.19092 9.00071 4.76321 9.00071 4.24316ZM16.0858 3.26181C15.5031 3.18695 15 3.65573 15 4.24319C15 4.76323 15.3981 5.19094 15.9135 5.25995C17.0165 5.4076 17.4126 5.61279 17.9 6.10022C18.3875 6.58765 18.5927 6.98376 18.7403 8.08676C18.8093 8.6022 19.237 9.00028 19.7571 9.00028C20.3445 9.00028 20.8133 8.49718 20.7384 7.91451C20.5611 6.53429 20.2396 5.61136 19.3143 4.68601C18.3889 3.76065 17.466 3.43916 16.0858 3.26181ZM9.00046 19.7569C9.00046 20.3443 8.49736 20.8131 7.91469 20.7383C6.53447 20.5609 5.61154 20.2394 4.68619 19.3141C3.76044 18.3883 3.43907 17.465 3.26177 16.0838C3.18698 15.5012 3.65574 14.9981 4.24318 14.9981C4.76324 14.9981 5.19097 15.3962 5.2599 15.9116C5.40758 17.0159 5.61273 17.4122 6.1004 17.8999C6.58783 18.3873 6.98394 18.5925 8.08694 18.7401C8.60239 18.8091 9.00046 19.2368 9.00046 19.7569ZM19.7572 14.9985C20.3447 14.9985 20.8134 15.5015 20.7386 16.0842C20.5613 17.4652 20.2399 18.3884 19.3143 19.3141C18.389 20.2393 17.4662 20.5608 16.0864 20.7382C15.5037 20.8131 15.0006 20.3443 15.0006 19.7568C15.0006 19.2368 15.3987 18.8091 15.9141 18.7401C17.0166 18.5924 17.4127 18.3872 17.9 17.8999C18.3877 17.4122 18.5928 17.016 18.7405 15.912C18.8094 15.3965 19.2372 14.9985 19.7572 14.9985ZM7.35825 7.35605C7.10285 7.61145 7.07843 7.87557 7.0296 8.40382C7.01192 8.59506 7.00049 8.79668 7.00049 8.99829C7.00049 9.19991 7.01192 9.40152 7.0296 9.59276C7.07843 10.121 7.10285 10.3851 7.35825 10.6405C7.61365 10.8959 7.87777 10.9203 8.40602 10.9692C8.59726 10.9869 8.79887 10.9983 9.00049 10.9983C9.2021 10.9983 9.40372 10.9869 9.59496 10.9692C10.1232 10.9203 10.3873 10.8959 10.6427 10.6405C10.8981 10.3851 10.9225 10.121 10.9714 9.59276C10.9891 9.40152 11.0005 9.19991 11.0005 8.99829C11.0005 8.79668 10.9891 8.59506 10.9714 8.40382C10.9225 7.87557 10.8981 7.61145 10.6427 7.35605C10.3873 7.10065 10.1232 7.07623 9.59496 7.0274C9.40372 7.00972 9.2021 6.99829 9.00049 6.99829C8.79887 6.99829 8.59726 7.00972 8.40602 7.0274C7.87777 7.07623 7.61365 7.10065 7.35825 7.35605ZM13.0296 8.40382C13.0784 7.87557 13.1028 7.61145 13.3582 7.35605C13.6136 7.10065 13.8778 7.07623 14.406 7.0274C14.5973 7.00972 14.7989 6.99829 15.0005 6.99829C15.2021 6.99829 15.4037 7.00972 15.595 7.0274C16.1232 7.07623 16.3873 7.10065 16.6427 7.35605C16.8981 7.61145 16.9225 7.87557 16.9714 8.40382C16.9891 8.59506 17.0005 8.79668 17.0005 8.99829C17.0005 9.19991 16.9891 9.40152 16.9714 9.59276C16.9225 10.121 16.8981 10.3851 16.6427 10.6405C16.3873 10.8959 16.1232 10.9203 15.595 10.9692C15.4037 10.9869 15.2021 10.9983 15.0005 10.9983C14.7989 10.9983 14.5973 10.9869 14.406 10.9692C13.8778 10.9203 13.6136 10.8959 13.3582 10.6405C13.1028 10.3851 13.0784 10.121 13.0296 9.59276C13.0119 9.40152 13.0005 9.19991 13.0005 8.99829C13.0005 8.79668 13.0119 8.59506 13.0296 8.40382ZM7.0296 14.4038C7.07843 13.8756 7.10285 13.6115 7.35825 13.3561C7.61365 13.1006 7.87777 13.0762 8.40602 13.0274C8.59726 13.0097 8.79887 12.9983 9.00049 12.9983C9.2021 12.9983 9.40372 13.0097 9.59496 13.0274C10.1232 13.0762 10.3873 13.1006 10.6427 13.3561C10.8981 13.6115 10.9225 13.8756 10.9714 14.4038C10.9891 14.5951 11.0005 14.7967 11.0005 14.9983C11.0005 15.1999 10.9891 15.4015 10.9714 15.5928C10.9225 16.121 10.8981 16.3851 10.6427 16.6405C10.3873 16.8959 10.1232 16.9203 9.59496 16.9692C9.40372 16.9869 9.2021 16.9983 9.00049 16.9983C8.79887 16.9983 8.59726 16.9869 8.40602 16.9692C7.87777 16.9203 7.61365 16.8959 7.35825 16.6405C7.10285 16.3851 7.07843 16.121 7.0296 15.5928C7.01192 15.4015 7.00049 15.1999 7.00049 14.9983C7.00049 14.7967 7.01192 14.5951 7.0296 14.4038ZM15.5005 14.9983C15.2243 14.9983 15.0005 15.2221 15.0005 15.4983V15.9983C15.0005 16.5506 14.5528 16.9983 14.0005 16.9983C13.4482 16.9983 13.0005 16.5506 13.0005 15.9983V14.4983C13.0005 13.6699 13.6721 12.9983 14.5005 12.9983H16.0005C16.5528 12.9983 17.0005 13.446 17.0005 13.9983C17.0005 14.5506 16.5528 14.9983 16.0005 14.9983H15.5005Z" fill="#1D2023"/>
</g>
<defs>
<clipPath id="clip0_1054_7483">
<rect width="24" height="24" fill="white"/>
</clipPath>
</defs>
</svg>
